<mxfile host="app.diagrams.net" modified="2023-04-28T07:55:36.933Z" agent="Mozilla/5.0 (Windows NT 10.0; Win64; x64) AppleWebKit/537.36 (KHTML, like Gecko) Chrome/112.0.0.0 Safari/537.36" etag="3hY7osawQb2gT_iS3gbg" version="21.2.3" type="device">
  <diagram id="Yo6Zvny2ZRX3JAPKxXua" name="Page 2">
    <mxGraphModel dx="1167" dy="637" grid="1" gridSize="10" guides="1" tooltips="1" connect="1" arrows="1" fold="1" page="1" pageScale="1" pageWidth="850" pageHeight="1100" math="0" shadow="0">
      <root>
        <mxCell id="0" />
        <mxCell id="1" parent="0" />
        <mxCell id="8I9pphBKhg92I5GMk5e_-31" value="" style="graphMlID=e0;endArrow=none;strokeColor=#FF6392;strokeWidth=1.0;startArrow=diamond;startFill=0;endFill=1;exitX=1;exitY=0.25;exitDx=0;exitDy=0;fontColor=#5AA9E6;entryX=-0.008;entryY=-0.286;entryDx=0;entryDy=0;entryPerimeter=0;" parent="1" source="8I9pphBKhg92I5GMk5e_-50" target="8I9pphBKhg92I5GMk5e_-57" edge="1">
          <mxGeometry relative="1" as="geometry" />
        </mxCell>
        <mxCell id="8I9pphBKhg92I5GMk5e_-32" value="" style="graphMlID=e1;endArrow=none;strokeColor=#FF6392;strokeWidth=1.0;startArrow=diamond;startFill=0;endFill=1;exitX=1;exitY=0.5;exitDx=0;exitDy=0;fontColor=#5AA9E6;entryX=0;entryY=0.5;entryDx=0;entryDy=0;" parent="1" source="8I9pphBKhg92I5GMk5e_-51" target="8I9pphBKhg92I5GMk5e_-61" edge="1">
          <mxGeometry relative="1" as="geometry" />
        </mxCell>
        <mxCell id="8I9pphBKhg92I5GMk5e_-33" value="" style="graphMlID=e2;endArrow=none;strokeColor=#FF6392;strokeWidth=1.0;startArrow=diamond;startFill=0;endFill=1;fontColor=#5AA9E6;entryX=0;entryY=0.25;entryDx=0;entryDy=0;" parent="1" source="8I9pphBKhg92I5GMk5e_-60" target="8I9pphBKhg92I5GMk5e_-89" edge="1">
          <mxGeometry relative="1" as="geometry">
            <mxPoint x="648" y="240" as="sourcePoint" />
          </mxGeometry>
        </mxCell>
        <mxCell id="8I9pphBKhg92I5GMk5e_-34" value="" style="graphMlID=e3;endArrow=none;strokeColor=#FF6392;strokeWidth=1.0;startArrow=diamond;startFill=0;endFill=1;exitX=0.988;exitY=-0.077;exitDx=0;exitDy=0;exitPerimeter=0;fontColor=#5AA9E6;entryX=-0.023;entryY=0.105;entryDx=0;entryDy=0;entryPerimeter=0;" parent="1" source="8I9pphBKhg92I5GMk5e_-53" target="8I9pphBKhg92I5GMk5e_-64" edge="1">
          <mxGeometry relative="1" as="geometry">
            <mxPoint x="840" y="580" as="targetPoint" />
            <Array as="points">
              <mxPoint x="420" y="670" />
            </Array>
          </mxGeometry>
        </mxCell>
        <mxCell id="8I9pphBKhg92I5GMk5e_-35" value="" style="graphMlID=e4;endArrow=none;strokeColor=#FF6392;strokeWidth=1.0;startArrow=diamond;startFill=0;endFill=1;exitX=0.975;exitY=1;exitDx=0;exitDy=0;exitPerimeter=0;fontColor=#5AA9E6;entryX=0.5;entryY=0;entryDx=0;entryDy=0;" parent="1" source="8I9pphBKhg92I5GMk5e_-53" target="8I9pphBKhg92I5GMk5e_-68" edge="1">
          <mxGeometry relative="1" as="geometry">
            <mxPoint x="520" y="971" as="targetPoint" />
          </mxGeometry>
        </mxCell>
        <mxCell id="8I9pphBKhg92I5GMk5e_-36" value="" style="graphMlID=e5;endArrow=none;strokeColor=#FF6392;strokeWidth=1.0;startArrow=diamond;startFill=0;endFill=1;fontColor=#5AA9E6;exitX=1.001;exitY=-0.077;exitDx=0;exitDy=0;exitPerimeter=0;" parent="1" source="8I9pphBKhg92I5GMk5e_-55" target="8I9pphBKhg92I5GMk5e_-82" edge="1">
          <mxGeometry relative="1" as="geometry" />
        </mxCell>
        <mxCell id="8I9pphBKhg92I5GMk5e_-37" value="" style="graphMlID=e6;endArrow=none;strokeColor=#FF6392;strokeWidth=1.0;startArrow=diamond;startFill=0;endFill=1;fontColor=#5AA9E6;" parent="1" source="8I9pphBKhg92I5GMk5e_-64" target="8I9pphBKhg92I5GMk5e_-97" edge="1">
          <mxGeometry relative="1" as="geometry" />
        </mxCell>
        <mxCell id="8I9pphBKhg92I5GMk5e_-38" value="" style="graphMlID=e7;endArrow=none;strokeColor=#FF6392;strokeWidth=1.0;startArrow=none;startFill=1;endFill=1;fontColor=#5AA9E6;entryX=0;entryY=0.25;entryDx=0;entryDy=0;exitX=1;exitY=0.5;exitDx=0;exitDy=0;" parent="1" source="8I9pphBKhg92I5GMk5e_-67" target="8I9pphBKhg92I5GMk5e_-72" edge="1">
          <mxGeometry relative="1" as="geometry" />
        </mxCell>
        <mxCell id="8I9pphBKhg92I5GMk5e_-39" value="" style="graphMlID=e8;endArrow=none;strokeColor=#FF6392;strokeWidth=1.0;startArrow=diamond;startFill=0;endFill=1;fontColor=#5AA9E6;exitX=1;exitY=0.5;exitDx=0;exitDy=0;entryX=0;entryY=0.5;entryDx=0;entryDy=0;" parent="1" source="8I9pphBKhg92I5GMk5e_-57" target="8I9pphBKhg92I5GMk5e_-86" edge="1">
          <mxGeometry relative="1" as="geometry">
            <mxPoint x="710" y="80" as="sourcePoint" />
          </mxGeometry>
        </mxCell>
        <mxCell id="8I9pphBKhg92I5GMk5e_-40" value="" style="graphMlID=e9;endArrow=none;strokeColor=#FF6392;strokeWidth=1.0;startArrow=diamond;startFill=0;endFill=1;fontColor=#5AA9E6;exitX=1;exitY=0.5;exitDx=0;exitDy=0;entryX=-0.013;entryY=0.08;entryDx=0;entryDy=0;entryPerimeter=0;" parent="1" source="8I9pphBKhg92I5GMk5e_-86" target="8I9pphBKhg92I5GMk5e_-105" edge="1">
          <mxGeometry relative="1" as="geometry" />
        </mxCell>
        <mxCell id="8I9pphBKhg92I5GMk5e_-41" value="" style="graphMlID=e10;endArrow=none;strokeColor=#FF6392;strokeWidth=1.0;startArrow=diamond;startFill=0;endFill=1;fontColor=#5AA9E6;exitX=0.998;exitY=0.132;exitDx=0;exitDy=0;exitPerimeter=0;entryX=0.008;entryY=0.345;entryDx=0;entryDy=0;entryPerimeter=0;" parent="1" source="8I9pphBKhg92I5GMk5e_-85" target="8I9pphBKhg92I5GMk5e_-101" edge="1">
          <mxGeometry relative="1" as="geometry" />
        </mxCell>
        <mxCell id="8I9pphBKhg92I5GMk5e_-42" value="" style="graphMlID=e11;endArrow=none;strokeColor=#FF6392;strokeWidth=1.0;startArrow=diamond;startFill=0;endFill=1;fontColor=#5AA9E6;exitX=1;exitY=0.5;exitDx=0;exitDy=0;entryX=0.006;entryY=0.178;entryDx=0;entryDy=0;entryPerimeter=0;" parent="1" source="8I9pphBKhg92I5GMk5e_-97" target="8I9pphBKhg92I5GMk5e_-109" edge="1">
          <mxGeometry relative="1" as="geometry" />
        </mxCell>
        <mxCell id="8I9pphBKhg92I5GMk5e_-43" value="" style="graphMlID=e12;endArrow=none;strokeColor=#FF6392;strokeWidth=1.0;startArrow=diamond;startFill=0;endFill=1;fontColor=#5AA9E6;exitX=0.999;exitY=0.387;exitDx=0;exitDy=0;exitPerimeter=0;entryX=-0.014;entryY=0.373;entryDx=0;entryDy=0;entryPerimeter=0;" parent="1" source="8I9pphBKhg92I5GMk5e_-109" target="8I9pphBKhg92I5GMk5e_-112" edge="1">
          <mxGeometry relative="1" as="geometry" />
        </mxCell>
        <mxCell id="8I9pphBKhg92I5GMk5e_-44" value="" style="graphMlID=e13;endArrow=none;strokeColor=#FF6392;strokeWidth=1.0;startArrow=none;startFill=1;endFill=1;fontColor=#5AA9E6;entryX=0.682;entryY=1.002;entryDx=0;entryDy=0;entryPerimeter=0;exitX=0.75;exitY=0;exitDx=0;exitDy=0;" parent="1" source="8I9pphBKhg92I5GMk5e_-60" target="8I9pphBKhg92I5GMk5e_-57" edge="1">
          <mxGeometry relative="1" as="geometry" />
        </mxCell>
        <mxCell id="8I9pphBKhg92I5GMk5e_-45" value="" style="graphMlID=e14;endArrow=none;strokeColor=#FF6392;strokeWidth=1.0;startArrow=none;startFill=1;endFill=1;fontColor=#5AA9E6;exitX=0.5;exitY=0;exitDx=0;exitDy=0;" parent="1" source="8I9pphBKhg92I5GMk5e_-96" target="8I9pphBKhg92I5GMk5e_-88" edge="1">
          <mxGeometry relative="1" as="geometry">
            <mxPoint x="1177.6990312711996" y="279.6614280464578" as="targetPoint" />
          </mxGeometry>
        </mxCell>
        <mxCell id="8I9pphBKhg92I5GMk5e_-50" value="VirtualWorld" style="swimlane;fontStyle=1;align=center;verticalAlign=top;childLayout=stackLayout;horizontal=1;startSize=20;horizontalStack=0;resizeParent=1;resizeParentMax=0;resizeLast=0;collapsible=1;marginBottom=0;hachureGap=4;pointerEvents=0;fillColor=#FFE45E;strokeColor=#FF6392;fontColor=#5AA9E6;" parent="1" vertex="1">
          <mxGeometry x="20" y="150" width="300" height="610" as="geometry" />
        </mxCell>
        <mxCell id="8I9pphBKhg92I5GMk5e_-51" value="+TIMER_ACTION_PERIOD: int         &lt;&lt;static&gt;&gt;&#xa;+VIEW_WIDTH: int                          &lt;&lt;static&gt;&gt;&#xa;+VIEW_HEIGHT: int                         &lt;&lt;static&gt;&gt;&#xa;+TILE_WIDTH: int                           &lt;&lt;static&gt;&gt;&#xa;+TILE_HEIGHT: int                          &lt;&lt;static&gt;&gt;&#xa;+WORLD_WIDTH_SCALE: int           &lt;&lt;static&gt;&gt;&#xa;+WORLD_HEIGHT_SCALE: int          &lt;&lt;static&gt;&gt;&#xa;+VIEW_COLS: int                             &lt;&lt;static&gt;&gt;&#xa;+VIEW_ROWS: int                            &lt;&lt;static&gt;&gt;&#xa;+WORLD_COLS: int                         &lt;&lt;static&gt;&gt;&#xa;+WORLD_ROWS: int                        &lt;&lt;static&gt;&gt;&#xa;+IMAGE_LIST_FILE_NAME: String    &lt;&lt;static&gt;&gt;&#xa;+DEFAULT_IMAGE_NAME: String    &lt;&lt;static&gt;&gt;&#xa;+DEFAULT_IMAGE_COLOR: int       &lt;&lt;static&gt;&gt;&#xa;+LOAD_FILE_NAME: String            &lt;&lt;static&gt;&gt;&#xa;+FAST_FLAG: String                      &lt;&lt;static&gt;&gt;&#xa;+FASTER_FLAG: String                  &lt;&lt;static&gt;&gt;&#xa;+FASTEST_FLAG: String                &lt;&lt;static&gt;&gt;&#xa;+FAST_SCALE: double                  &lt;&lt;static&gt;&gt;&#xa;+FASTER_SCALE: double              &lt;&lt;static&gt;&gt;&#xa;+FASTEST_SCALE: double            &lt;&lt;static&gt;&gt;&#xa;+timeScale: double&#xa;+imageStore: ImageStore&#xa;+world: WorldModel&#xa;+view: WorldView&#xa;+scheduler: EventScheduler" style="text;strokeColor=none;fillColor=none;align=left;verticalAlign=top;spacingLeft=4;spacingRight=4;overflow=hidden;rotatable=0;points=[[0,0.5],[1,0.5]];portConstraint=eastwest;fontColor=#5AA9E6;" parent="8I9pphBKhg92I5GMk5e_-50" vertex="1">
          <mxGeometry y="20" width="300" height="380" as="geometry" />
        </mxCell>
        <mxCell id="8I9pphBKhg92I5GMk5e_-52" value="" style="line;strokeWidth=1;fillColor=none;align=left;verticalAlign=middle;spacingTop=-1;spacingLeft=3;spacingRight=3;rotatable=0;labelPosition=right;points=[];portConstraint=eastwest;strokeColor=#FF6392;fontColor=#5AA9E6;" parent="8I9pphBKhg92I5GMk5e_-50" vertex="1">
          <mxGeometry y="400" width="300" height="8" as="geometry" />
        </mxCell>
        <mxCell id="8I9pphBKhg92I5GMk5e_-53" value="+settings()&#xa;+setup()&#xa;+draw()&#xa;+mousePressed()&#xa;-mouseToPoint()&#xa;+keyPressed()&#xa;+createDefaultBackground()         &lt;&lt;static&gt;&gt;&#xa;+createImageColored()                 &lt;&lt;static&gt;&gt;&#xa;+loadWorld()                                 &lt;&lt;static&gt;&gt;&#xa;+loadWorld()                                 &lt;&lt;static&gt;&gt;&#xa;+scheduleActions()                       &lt;&lt;static&gt;&gt;&#xa;+parseCommandLine()                  &lt;&lt;static&gt;&gt;&#xa;+main()                                         &lt;&lt;static&gt;&gt;" style="text;strokeColor=none;fillColor=none;align=left;verticalAlign=top;spacingLeft=4;spacingRight=4;overflow=hidden;rotatable=0;points=[[0,0.5],[1,0.5]];portConstraint=eastwest;fontColor=#5AA9E6;" parent="8I9pphBKhg92I5GMk5e_-50" vertex="1">
          <mxGeometry y="408" width="300" height="202" as="geometry" />
        </mxCell>
        <mxCell id="8I9pphBKhg92I5GMk5e_-54" value="WorldModel" style="swimlane;fontStyle=1;align=center;verticalAlign=top;childLayout=stackLayout;horizontal=1;startSize=26;horizontalStack=0;resizeParent=1;resizeParentMax=0;resizeLast=0;collapsible=1;marginBottom=0;hachureGap=4;pointerEvents=0;sketch=0;fontColor=#5AA9E6;strokeColor=#FF6392;fillColor=#FFE45E;" parent="1" vertex="1">
          <mxGeometry x="520" y="10" width="280" height="510" as="geometry" />
        </mxCell>
        <mxCell id="8I9pphBKhg92I5GMk5e_-55" value="-numRows: int&#xa;-numCols: int&#xa;-background: Background[][]&#xa;-occupancy: Entity[][]&#xa;-entities: Set&lt;Entity&gt;" style="text;strokeColor=none;fillColor=none;align=left;verticalAlign=top;spacingLeft=4;spacingRight=4;overflow=hidden;rotatable=0;points=[[0,0.5],[1,0.5]];portConstraint=eastwest;fontColor=#000000;" parent="8I9pphBKhg92I5GMk5e_-54" vertex="1">
          <mxGeometry y="26" width="280" height="94" as="geometry" />
        </mxCell>
        <mxCell id="8I9pphBKhg92I5GMk5e_-56" value="" style="line;strokeWidth=1;fillColor=none;align=left;verticalAlign=middle;spacingTop=-1;spacingLeft=3;spacingRight=3;rotatable=0;labelPosition=right;points=[];portConstraint=eastwest;strokeColor=#FF6392;fontColor=#5AA9E6;" parent="8I9pphBKhg92I5GMk5e_-54" vertex="1">
          <mxGeometry y="120" width="280" height="8" as="geometry" />
        </mxCell>
        <mxCell id="8I9pphBKhg92I5GMk5e_-57" value="+addEntity()&#xa;-withinBounds&#xa;+tryAddEntity()                              &#xa;+moveEntity()                               &#xa;+removeEntity()                              &#xa;-removeEntityAt()  &#xa;+isOccupied(): boolean                          &#xa;+getOccupant(): Optional&lt;Entity&gt;      &#xa;+getOccupancyCell(): Entity             &#xa;+setOccupancyCell()   &#xa;+getBackgroundCell(): Background             &#xa;-setBackgroundCell()                         &#xa;+getBackgroundImage(): Optional&lt;PImage&gt;&#xa;+getEntities(): Set&lt;Entity&gt;&#xa;+setEntities(): Set&lt;Entity&gt;&#xa;+getOccupancy()&#xa;+setOccupancy(): Entity[][] occupancy&#xa;+getBackground()&#xa;+setBackground(): Background[][]&#xa;+getNumRows()&#xa;+setNumRows(): numRows&#xa;+getNumCols()&#xa;+setNumCols(): numCols&#xa;+load()&#xa;-nearestEntity(): Optional&lt;Entity&gt;           &#xa;+findNearest(): Optional&lt;Entity&gt; &#xa;  &#xa;                         " style="text;strokeColor=none;fillColor=none;align=left;verticalAlign=top;spacingLeft=4;spacingRight=4;overflow=hidden;rotatable=0;points=[[0,0.5],[1,0.5]];portConstraint=eastwest;fontColor=#020405;" parent="8I9pphBKhg92I5GMk5e_-54" vertex="1">
          <mxGeometry y="128" width="280" height="382" as="geometry" />
        </mxCell>
        <mxCell id="8I9pphBKhg92I5GMk5e_-60" value="WorldView" style="swimlane;fontStyle=1;align=center;verticalAlign=top;childLayout=stackLayout;horizontal=1;startSize=26;horizontalStack=0;resizeParent=1;resizeParentMax=0;resizeLast=0;collapsible=1;marginBottom=0;hachureGap=4;pointerEvents=0;sketch=0;fontColor=#5AA9E6;strokeColor=#FF6392;fillColor=#FFE45E;" parent="1" vertex="1">
          <mxGeometry x="520" y="540" width="280" height="210" as="geometry" />
        </mxCell>
        <mxCell id="8I9pphBKhg92I5GMk5e_-61" value="-screen: PApplet&#xa;-world: WorldModel&#xa;-tileWidth: int&#xa;-tileHeight: int&#xa;-viewport: Viewport&#xa;" style="text;strokeColor=none;fillColor=none;align=left;verticalAlign=top;spacingLeft=4;spacingRight=4;overflow=hidden;rotatable=0;points=[[0,0.5],[1,0.5]];portConstraint=eastwest;fontColor=#000000;" parent="8I9pphBKhg92I5GMk5e_-60" vertex="1">
          <mxGeometry y="26" width="280" height="84" as="geometry" />
        </mxCell>
        <mxCell id="8I9pphBKhg92I5GMk5e_-62" value="" style="line;strokeWidth=1;fillColor=none;align=left;verticalAlign=middle;spacingTop=-1;spacingLeft=3;spacingRight=3;rotatable=0;labelPosition=right;points=[];portConstraint=eastwest;strokeColor=#FF6392;fontColor=#5AA9E6;" parent="8I9pphBKhg92I5GMk5e_-60" vertex="1">
          <mxGeometry y="110" width="280" height="8" as="geometry" />
        </mxCell>
        <mxCell id="8I9pphBKhg92I5GMk5e_-63" value="+shiftView()&#xa;-drawEntities()&#xa;-drawBackground()&#xa;+drawViewport()&#xa;+getViewport():&#xa;-clamp() &#xa;                                                          &#xa;                                                           &#xa;" style="text;strokeColor=none;fillColor=none;align=left;verticalAlign=top;spacingLeft=4;spacingRight=4;overflow=hidden;rotatable=0;points=[[0,0.5],[1,0.5]];portConstraint=eastwest;fontColor=#000000;" parent="8I9pphBKhg92I5GMk5e_-60" vertex="1">
          <mxGeometry y="118" width="280" height="92" as="geometry" />
        </mxCell>
        <mxCell id="8I9pphBKhg92I5GMk5e_-64" value="EventScheduler" style="swimlane;fontStyle=1;align=center;verticalAlign=top;childLayout=stackLayout;horizontal=1;startSize=26;horizontalStack=0;resizeParent=1;resizeParentMax=0;resizeLast=0;collapsible=1;marginBottom=0;hachureGap=4;pointerEvents=0;sketch=0;fontColor=#5AA9E6;strokeColor=#FF6392;fillColor=#FFE45E;" parent="1" vertex="1">
          <mxGeometry x="520" y="766" width="280" height="200" as="geometry" />
        </mxCell>
        <mxCell id="8I9pphBKhg92I5GMk5e_-65" value="-eventQueue: PriorityQueue&lt;Event&gt;&#xa;-pendingEvents: Map&lt;Entity, List&lt;Event&gt;&gt;&#xa;-timeScale: double" style="text;strokeColor=none;fillColor=none;align=left;verticalAlign=top;spacingLeft=4;spacingRight=4;overflow=hidden;rotatable=0;points=[[0,0.5],[1,0.5]];portConstraint=eastwest;fontColor=#000000;" parent="8I9pphBKhg92I5GMk5e_-64" vertex="1">
          <mxGeometry y="26" width="280" height="64" as="geometry" />
        </mxCell>
        <mxCell id="8I9pphBKhg92I5GMk5e_-66" value="" style="line;strokeWidth=1;fillColor=none;align=left;verticalAlign=middle;spacingTop=-1;spacingLeft=3;spacingRight=3;rotatable=0;labelPosition=right;points=[];portConstraint=eastwest;strokeColor=#FF6392;fontColor=#5AA9E6;" parent="8I9pphBKhg92I5GMk5e_-64" vertex="1">
          <mxGeometry y="90" width="280" height="8" as="geometry" />
        </mxCell>
        <mxCell id="8I9pphBKhg92I5GMk5e_-67" value="+updateOnTime()&#xa;-removePendingEvent()&#xa;+scheduleEvent()&#xa;+unscheduleAllEvents()&#xa;+getCurrentTime():&#xa;                           &#xa;                       &#xa;&#xa;" style="text;strokeColor=none;fillColor=none;align=left;verticalAlign=top;spacingLeft=4;spacingRight=4;overflow=hidden;rotatable=0;points=[[0,0.5],[1,0.5]];portConstraint=eastwest;fontColor=#000000;" parent="8I9pphBKhg92I5GMk5e_-64" vertex="1">
          <mxGeometry y="98" width="280" height="102" as="geometry" />
        </mxCell>
        <mxCell id="8I9pphBKhg92I5GMk5e_-68" value="ImageStore" style="swimlane;fontStyle=1;align=center;verticalAlign=top;childLayout=stackLayout;horizontal=1;startSize=26;horizontalStack=0;resizeParent=1;resizeParentMax=0;resizeLast=0;collapsible=1;marginBottom=0;hachureGap=4;pointerEvents=0;sketch=0;fontColor=#5AA9E6;strokeColor=#FF6392;fillColor=#FFE45E;" parent="1" vertex="1">
          <mxGeometry x="100" y="820" width="280" height="212" as="geometry" />
        </mxCell>
        <mxCell id="RE-Zq3R93sb4HvGZANcT-1" value="-images: Map&amp;lt;String, List&amp;lt;PImage&amp;gt;&amp;gt;&lt;br style=&quot;border-color: var(--border-color); padding: 0px; margin: 0px;&quot;&gt;-defaultImages: List&amp;lt;PImage&amp;gt;&lt;br&gt;&lt;span style=&quot;font-style: italic;&quot;&gt;&amp;nbsp; &amp;nbsp; &amp;nbsp; &amp;nbsp; &amp;nbsp; &amp;nbsp; &amp;nbsp; &amp;nbsp;&lt;/span&gt;&lt;span style=&quot;&quot;&gt;&lt;br&gt;&lt;/span&gt;" style="text;html=1;align=left;verticalAlign=middle;resizable=0;points=[];autosize=1;strokeColor=none;fillColor=none;" parent="8I9pphBKhg92I5GMk5e_-68" vertex="1">
          <mxGeometry y="26" width="280" height="60" as="geometry" />
        </mxCell>
        <mxCell id="8I9pphBKhg92I5GMk5e_-70" value="" style="line;strokeWidth=1;fillColor=none;align=left;verticalAlign=middle;spacingTop=-1;spacingLeft=3;spacingRight=3;rotatable=0;labelPosition=right;points=[];portConstraint=eastwest;strokeColor=#FF6392;fontColor=#5AA9E6;" parent="8I9pphBKhg92I5GMk5e_-68" vertex="1">
          <mxGeometry y="86" width="280" height="16" as="geometry" />
        </mxCell>
        <mxCell id="IUx8sSsAevw_l5GcHaOW-3" value="&lt;div style=&quot;&quot;&gt;&lt;span style=&quot;background-color: initial;&quot;&gt;-getImageList(): List&amp;lt;PImage&amp;gt;&amp;nbsp;&lt;/span&gt;&lt;/div&gt;&lt;div style=&quot;&quot;&gt;&lt;span style=&quot;background-color: initial;&quot;&gt;-getDefaultImages():&lt;/span&gt;&lt;/div&gt;&lt;div style=&quot;&quot;&gt;&lt;span style=&quot;background-color: initial;&quot;&gt;+getImages():&lt;/span&gt;&lt;/div&gt;&lt;div style=&quot;&quot;&gt;+loadImages()&amp;nbsp; &amp;nbsp; &amp;nbsp; &amp;nbsp; &amp;nbsp; &amp;nbsp; &amp;nbsp; &amp;nbsp; &amp;nbsp; &amp;nbsp; &amp;nbsp; &amp;nbsp; &amp;nbsp; &amp;nbsp; &amp;nbsp; &amp;nbsp;&amp;nbsp;&lt;br style=&quot;border-color: var(--border-color); padding: 0px; margin: 0px;&quot;&gt;-processImageLine()&amp;nbsp; &amp;nbsp; &amp;nbsp; &amp;nbsp; &amp;nbsp; &amp;nbsp; &amp;nbsp; &amp;nbsp; &amp;nbsp; &amp;nbsp; &amp;nbsp; &amp;nbsp; &amp;nbsp;&amp;nbsp;&lt;br style=&quot;border-color: var(--border-color); padding: 0px; margin: 0px;&quot;&gt;-getImages(): List&amp;lt;PImage&amp;gt;&amp;nbsp; &amp;nbsp; &amp;nbsp; &amp;nbsp; &amp;nbsp; &amp;nbsp; &amp;nbsp; &amp;nbsp; &amp;nbsp; &amp;nbsp;&lt;br style=&quot;border-color: var(--border-color); padding: 0px; margin: 0px;&quot;&gt;-setAlpha()&amp;nbsp; &amp;nbsp; &amp;nbsp; &amp;nbsp; &amp;nbsp; &amp;nbsp; &amp;nbsp; &amp;nbsp; &amp;nbsp; &amp;nbsp; &amp;nbsp; &amp;nbsp; &amp;nbsp; &amp;nbsp; &amp;nbsp; &amp;nbsp; &amp;nbsp; &amp;nbsp; &amp;nbsp; &amp;nbsp; &amp;nbsp; &amp;nbsp; &amp;nbsp; &amp;nbsp; &amp;nbsp; &amp;nbsp; &amp;nbsp; &amp;nbsp;&lt;span style=&quot;background-color: initial;&quot;&gt;&lt;br&gt;&lt;/span&gt;&lt;/div&gt;" style="text;html=1;align=left;verticalAlign=middle;resizable=0;points=[];autosize=1;strokeColor=none;fillColor=none;" parent="8I9pphBKhg92I5GMk5e_-68" vertex="1">
          <mxGeometry y="102" width="280" height="110" as="geometry" />
        </mxCell>
        <mxCell id="8I9pphBKhg92I5GMk5e_-72" value="EventComparator" style="swimlane;fontStyle=1;align=center;verticalAlign=top;childLayout=stackLayout;horizontal=1;startSize=26;horizontalStack=0;resizeParent=1;resizeParentMax=0;resizeLast=0;collapsible=1;marginBottom=0;hachureGap=4;pointerEvents=0;sketch=0;fontColor=#5AA9E6;strokeColor=#FF6392;fillColor=#FFE45E;" parent="1" vertex="1">
          <mxGeometry x="880" y="966" width="240" height="134" as="geometry" />
        </mxCell>
        <mxCell id="8I9pphBKhg92I5GMk5e_-73" value="+eventQueue: PriorityQueue&lt;Event&gt;&#xa;+pendingEvents: Map&lt;Entity, List&lt;Event&gt;&gt;&#xa;+timeScale: double" style="text;strokeColor=none;fillColor=none;align=left;verticalAlign=top;spacingLeft=4;spacingRight=4;overflow=hidden;rotatable=0;points=[[0,0.5],[1,0.5]];portConstraint=eastwest;fontColor=#000000;" parent="8I9pphBKhg92I5GMk5e_-72" vertex="1">
          <mxGeometry y="26" width="240" height="74" as="geometry" />
        </mxCell>
        <mxCell id="8I9pphBKhg92I5GMk5e_-74" value="" style="line;strokeWidth=1;fillColor=none;align=left;verticalAlign=middle;spacingTop=-1;spacingLeft=3;spacingRight=3;rotatable=0;labelPosition=right;points=[];portConstraint=eastwest;strokeColor=#FF6392;fontColor=#5AA9E6;" parent="8I9pphBKhg92I5GMk5e_-72" vertex="1">
          <mxGeometry y="100" width="240" height="8" as="geometry" />
        </mxCell>
        <mxCell id="8I9pphBKhg92I5GMk5e_-75" value="TODO" style="text;strokeColor=none;fillColor=none;align=left;verticalAlign=top;spacingLeft=4;spacingRight=4;overflow=hidden;rotatable=0;points=[[0,0.5],[1,0.5]];portConstraint=eastwest;fontColor=#000000;" parent="8I9pphBKhg92I5GMk5e_-72" vertex="1">
          <mxGeometry y="108" width="240" height="26" as="geometry" />
        </mxCell>
        <mxCell id="8I9pphBKhg92I5GMk5e_-77" value="Functions" style="swimlane;fontStyle=1;align=center;verticalAlign=top;childLayout=stackLayout;horizontal=1;startSize=26;horizontalStack=0;resizeParent=1;resizeParentMax=0;resizeLast=0;collapsible=1;marginBottom=0;hachureGap=4;pointerEvents=0;sketch=0;fontColor=#5AA9E6;strokeColor=#FF6392;fillColor=#FFE45E;" parent="1" vertex="1">
          <mxGeometry x="320" y="1130" width="360" height="1470" as="geometry" />
        </mxCell>
        <mxCell id="8I9pphBKhg92I5GMk5e_-78" value="-rand: Random                                &lt;&lt;static&gt;&gt;&#xa;&#xa;-COLOR_MASK: int                             &lt;&lt;static&gt;&gt;&#xa;-KEYED_IMAGE_MIN: int                        &lt;&lt;static&gt;&gt;&#xa;-KEYED_RED_IDX: int                        &lt;&lt;static&gt;&gt;&#xa;-KEYED_GREEN_IDX: int                        &lt;&lt;static&gt;&gt;&#xa;-KEYED_BLUE_IDX: int                        &lt;&lt;static&gt;&gt;&#xa;&#xa;-PROPERTY_KEY: int                           &lt;&lt;static&gt;&gt;&#xa;&#xa;-PATH_KEYS: List&lt;String                    &lt;&lt;static&gt;&gt;&#xa;&#xa;-SAPLING_KEY: String                            &lt;&lt;static&gt;&gt;&#xa;-SAPLING_HEALTH_LIMIT: int                               &lt;&lt;static&gt;&gt;&#xa;- SAPLING_ACTION_ANIMATION_PERIOD:  int     &lt;&lt;static&gt;&gt;&#xa;-SAPLING_NUM_PROPERTIES: int                      &lt;&lt;static&gt;&gt;&#xa;-SAPLING_ID: String                            &lt;&lt;static&gt;&gt;&#xa;-SAPLING_COL: int                    &lt;&lt;static&gt;&gt;&#xa;-SAPLING_ROW: int                                &lt;&lt;static&gt;&gt;&#xa;-SAPLING_HEALTH: int                               &lt;&lt;static&gt;&gt;&#xa;&#xa;&#xa;-BGND_KEY: String                            &lt;&lt;static&gt;&gt;&#xa;-BGND_NUM_PROPERTIES: int                    &lt;&lt;static&gt;&gt;&#xa;-BGND_ID: int                                &lt;&lt;static&gt;&gt;&#xa;-BGND_COL: int                               &lt;&lt;static&gt;&gt;&#xa;-BGND_ROW: int                               &lt;&lt;static&gt;&gt;&#xa;&#xa;-OBSTACLE_KEY: String                        &lt;&lt;static&gt;&gt;&#xa;-OBSTACLE_NUM_PROPERTIES: int                &lt;&lt;static&gt;&gt;&#xa;-OBSTACLE_ID: int                            &lt;&lt;static&gt;&gt;&#xa;-OBSTACLE_COL: int                           &lt;&lt;static&gt;&gt;&#xa;-OBSTACLE_ROW: int                           &lt;&lt;static&gt;&gt;&#xa;-OBSTACLE_ANIMATION_PERIOD: int     &lt;&lt;static&gt;&gt;&#xa;&#xa;-DUDE_KEY: String                               &lt;&lt;static&gt;&gt;&#xa;-DUDE_NUM_PROPERTIES: int                     &lt;&lt;static&gt;&gt;&#xa;-DUDE_ID: String                           &lt;&lt;static&gt;&gt;&#xa;-DUDE_COL: int                   &lt;&lt;static&gt;&gt;&#xa;-DUDE_ROW: int                               &lt;&lt;static&gt;&gt;&#xa;-DUDE_LIMIT: int                              &lt;&lt;static&gt;&gt;&#xa;-DUDE_ACTION_PERIOD: int             &lt;&lt;static&gt;&gt;&#xa;-DUDE_ANIMATION_PERIOD: int          &lt;&lt;static&gt;&gt;&#xa;&#xa;-HOUSE_KEY: String                           &lt;&lt;static&gt;&gt;&#xa;-HOUSE_NUM_PROPERTIES: int                 &lt;&lt;static&gt;&gt;&#xa;-HOUSE_ID: String                          &lt;&lt;static&gt;&gt;&#xa;-HOUSE_COL: int                        &lt;&lt;static&gt;&gt;&#xa;-HOUSE_ROW: int                       &lt;&lt;static&gt;&gt;&#xa;&#xa;-FAIRY_KEY: String                            &lt;&lt;static&gt;&gt;&#xa;-FAIRY_NUM_PROPERTIES: int         &lt;&lt;static&gt;&gt;&#xa;- FAIRY_ID:  String                     &lt;&lt;static&gt;&gt;&#xa;-FAIRY_COL: int                    &lt;&lt;static&gt;&gt;&#xa;-FAIRY_ROW: int                                &lt;&lt;static&gt;&gt;&#xa;-FAIRY_ANIMATION_PERIOD: int      &lt;&lt;static&gt;&gt;&#xa;-FAIRY_ACTION_PERIOD: int      &lt;&lt;static&gt;&gt;&#xa;&#xa;-TREE_KEY: String                            &lt;&lt;static&gt;&gt;&#xa;-TREE_NUM_PROPERTIES: int                      &lt;&lt;static&gt;&gt;&#xa;-TREE_ID: String                            &lt;&lt;static&gt;&gt;&#xa;-TREE_COL: int                    &lt;&lt;static&gt;&gt;&#xa;-TREE_ROW: int                                &lt;&lt;static&gt;&gt;&#xa;-TREE_ANIMATION_PERIOD: int      &lt;&lt;static&gt;&gt;&#xa;-TREE_ACTION_PERIOD: int          &lt;&lt;static&gt;&gt;&#xa;-SAPLING_HEALTH: int                               &lt;&lt;static&gt;&gt;&#xa;" style="text;strokeColor=none;fillColor=none;align=left;verticalAlign=top;spacingLeft=4;spacingRight=4;overflow=hidden;rotatable=0;points=[[0,0.5],[1,0.5]];portConstraint=eastwest;fontColor=#000000;" parent="8I9pphBKhg92I5GMk5e_-77" vertex="1">
          <mxGeometry y="26" width="360" height="964" as="geometry" />
        </mxCell>
        <mxCell id="8I9pphBKhg92I5GMk5e_-79" value="" style="line;strokeWidth=1;fillColor=none;align=left;verticalAlign=middle;spacingTop=-1;spacingLeft=3;spacingRight=3;rotatable=0;labelPosition=right;points=[];portConstraint=eastwest;strokeColor=#FF6392;fontColor=#5AA9E6;" parent="8I9pphBKhg92I5GMk5e_-77" vertex="1">
          <mxGeometry y="990" width="360" height="8" as="geometry" />
        </mxCell>
        <mxCell id="8I9pphBKhg92I5GMk5e_-80" value="+getTreeHealthMin():  &lt;&lt;static&gt;&gt;&#xa;+getTreeHealthMax():  &lt;&lt;static&gt;&gt;&#xa;+getTreeActionMin():  &lt;&lt;static&gt;&gt;&#xa;+getTreeAnimationMax():  &lt;&lt;static&gt;&gt;&#xa;+getTreeActionMax():  &lt;&lt;static&gt;&gt;&#xa;+getTreeAnimationMin():  &lt;&lt;static&gt;&gt;&#xa;+getSaplingKey(): &lt;&lt;static&gt;&gt;&#xa;+getStumpKey(): &lt;&lt;static&gt;&gt;&#xa;+getTreeKey(): &lt;&lt;static&gt;&gt; &#xa;+getColorMask(): &lt;&lt;static&gt;&gt;&#xa;+getKeyedImageMin(): &lt;&lt;static&gt;&gt;&#xa;+getKeyedGreenIdx(): &lt;&lt;static&gt;&gt; &#xa;+getKeyedBlueIdx(): &lt;&lt;static&gt;&gt;&#xa;+getKeyedRedIdx(): &lt;&lt;static&gt;&gt;        &#xa;+processLine(): boolean                      &lt;&lt;static&gt;&gt;&#xa;+parseBackground(): boolean                  &lt;&lt;static&gt;&gt;&#xa;+parseSapling(): boolean                       &lt;&lt;static&gt;&gt;&#xa;+parseDude(): boolean                    &lt;&lt;static&gt;&gt;&#xa;+parseFairy(): boolean                         &lt;&lt;static&gt;&gt;&#xa;+parseTree(): boolean                       &lt;&lt;static&gt;&gt;&#xa;+parseObstacle(): boolean                        &lt;&lt;static&gt;&gt;&#xa;+parseHouse(): boolean                        &lt;&lt;static&gt;&gt;                                              &#xa;+createAnimationAction(): Action             &lt;&lt;static&gt;&gt;&#xa;+createActivityAction(): Action              &lt;&lt;static&gt;&gt;&#xa;+createHouse(): Entity                  &lt;&lt;static&gt;&gt;&#xa;+createObstacle(): Entity                   &lt;&lt;static&gt;&gt;&#xa;+createTree(): Entity                &lt;&lt;static&gt;&gt;&#xa;+createStump(): Entity                    &lt;&lt;static&gt;&gt;&#xa;+createSapling(): Entity                         &lt;&lt;static&gt;&gt;&#xa;+createFairy(): Entity                     &lt;&lt;static&gt;&gt;&#xa;+createDudeNotFull(): Entity                       &lt;&lt;static&gt;&gt;&#xa;+createDudeFull(): Entity                        &lt;&lt;static&gt;&gt;" style="text;strokeColor=none;fillColor=none;align=left;verticalAlign=top;spacingLeft=4;spacingRight=4;overflow=hidden;rotatable=0;points=[[0,0.5],[1,0.5]];portConstraint=eastwest;fontColor=#000000;fontStyle=0" parent="8I9pphBKhg92I5GMk5e_-77" vertex="1">
          <mxGeometry y="998" width="360" height="472" as="geometry" />
        </mxCell>
        <mxCell id="8I9pphBKhg92I5GMk5e_-81" value="Background" style="swimlane;fontStyle=1;align=center;verticalAlign=top;childLayout=stackLayout;horizontal=1;startSize=26;horizontalStack=0;resizeParent=1;resizeParentMax=0;resizeLast=0;collapsible=1;marginBottom=0;hachureGap=4;pointerEvents=0;sketch=0;fontColor=#5AA9E6;strokeColor=#FF6392;fillColor=#FFE45E;" parent="1" vertex="1">
          <mxGeometry x="850" y="30" width="250" height="192" as="geometry" />
        </mxCell>
        <mxCell id="8I9pphBKhg92I5GMk5e_-82" value="-id: String&#xa;-images: List&lt;PImage&gt;&#xa;-imageIndex: int" style="text;strokeColor=none;fillColor=none;align=left;verticalAlign=top;spacingLeft=4;spacingRight=4;overflow=hidden;rotatable=0;points=[[0,0.5],[1,0.5]];portConstraint=eastwest;" parent="8I9pphBKhg92I5GMk5e_-81" vertex="1">
          <mxGeometry y="26" width="250" height="54" as="geometry" />
        </mxCell>
        <mxCell id="8I9pphBKhg92I5GMk5e_-83" value="" style="line;strokeWidth=1;fillColor=none;align=left;verticalAlign=middle;spacingTop=-1;spacingLeft=3;spacingRight=3;rotatable=0;labelPosition=right;points=[];portConstraint=eastwest;" parent="8I9pphBKhg92I5GMk5e_-81" vertex="1">
          <mxGeometry y="80" width="250" height="12" as="geometry" />
        </mxCell>
        <mxCell id="IUx8sSsAevw_l5GcHaOW-2" value="+getImages():&lt;br&gt;+getImageIndex():&lt;br&gt;+getCurrentImage(): PImage&lt;br&gt;+setAlpha()&lt;br&gt;+processImageLine()&lt;br&gt;-loadImages()" style="text;html=1;align=left;verticalAlign=middle;resizable=0;points=[];autosize=1;strokeColor=none;fillColor=none;" parent="8I9pphBKhg92I5GMk5e_-81" vertex="1">
          <mxGeometry y="92" width="250" height="100" as="geometry" />
        </mxCell>
        <mxCell id="8I9pphBKhg92I5GMk5e_-85" value="Entity" style="swimlane;fontStyle=1;align=center;verticalAlign=top;childLayout=stackLayout;horizontal=1;startSize=26;horizontalStack=0;resizeParent=1;resizeParentMax=0;resizeLast=0;collapsible=1;marginBottom=0;hachureGap=4;pointerEvents=0;sketch=0;fontColor=#5AA9E6;strokeColor=#FF6392;fillColor=#FFE45E;" parent="1" vertex="1">
          <mxGeometry x="1120" y="120" width="210" height="560" as="geometry" />
        </mxCell>
        <mxCell id="8I9pphBKhg92I5GMk5e_-86" value="-kind: EntityKind&#xa;-id: String&#xa;-position: Point&#xa;-images: List&lt;PImage&gt;&#xa;-imageIndex: int&#xa;-resourceLimit: int&#xa;-resourceCount: int&#xa;-actionPeriod: int&#xa;-animationPeriod: int&#xa;-health: int&#xa;-healthLimit: int" style="text;strokeColor=none;fillColor=none;align=left;verticalAlign=top;spacingLeft=4;spacingRight=4;overflow=hidden;rotatable=0;points=[[0,0.5],[1,0.5]];portConstraint=eastwest;" parent="8I9pphBKhg92I5GMk5e_-85" vertex="1">
          <mxGeometry y="26" width="210" height="174" as="geometry" />
        </mxCell>
        <mxCell id="8I9pphBKhg92I5GMk5e_-87" value="" style="line;strokeWidth=1;fillColor=none;align=left;verticalAlign=middle;spacingTop=-1;spacingLeft=3;spacingRight=3;rotatable=0;labelPosition=right;points=[];portConstraint=eastwest;" parent="8I9pphBKhg92I5GMk5e_-85" vertex="1">
          <mxGeometry y="200" width="210" height="8" as="geometry" />
        </mxCell>
        <mxCell id="8I9pphBKhg92I5GMk5e_-88" value="+getAnimationPeriod(): int                   &#xa;-transformNotFull(): boolean                 &#xa;-transformFull(): boolean&#xa;-transformPlant(): boolean                       &#xa;-transformTree(): boolean                    &#xa;-transformSapling(): boolean &#xa;-nextPositionFairy(): Point                  &#xa;-nextPositionDude(): Point&#xa;+executeSaplingActivity()                  &#xa;+executeTreeActivity()             &#xa;+executeFairyActivity()                           &#xa;+executeDudeNotFullActivity()                     &#xa;+executeDudeFullActivity() &#xa;+scheduleActions() &#xa;+getCurrentImage(): PImage&#xa;-moveToFairy(): boolean                       &#xa;-moveToNotFull(): boolean                    &#xa;-moveToFull(): boolean&#xa;+nextImage():&#xa;+getKind():&#xa;+getId():&#xa;+getPosition():&#xa;+setPosition(): Point&#xa;+getHealth():&#xa;                                                    &#xa;            &#xa;                " style="text;strokeColor=none;fillColor=none;align=left;verticalAlign=top;spacingLeft=4;spacingRight=4;overflow=hidden;rotatable=0;points=[[0,0.5],[1,0.5]];portConstraint=eastwest;" parent="8I9pphBKhg92I5GMk5e_-85" vertex="1">
          <mxGeometry y="208" width="210" height="352" as="geometry" />
        </mxCell>
        <mxCell id="8I9pphBKhg92I5GMk5e_-89" value="Viewport" style="swimlane;fontStyle=1;align=center;verticalAlign=top;childLayout=stackLayout;horizontal=1;startSize=26;horizontalStack=0;resizeParent=1;resizeParentMax=0;resizeLast=0;collapsible=1;marginBottom=0;hachureGap=4;pointerEvents=0;sketch=0;fontColor=#5AA9E6;strokeColor=#FF6392;fillColor=#FFE45E;" parent="1" vertex="1">
          <mxGeometry x="850" y="439.53999999999996" width="230" height="240" as="geometry" />
        </mxCell>
        <mxCell id="8I9pphBKhg92I5GMk5e_-90" value="-row: int&#xa;-col: int&#xa;-numRows: int&#xa;-numCols: int" style="text;strokeColor=none;fillColor=none;align=left;verticalAlign=top;spacingLeft=4;spacingRight=4;overflow=hidden;rotatable=0;points=[[0,0.5],[1,0.5]];portConstraint=eastwest;" parent="8I9pphBKhg92I5GMk5e_-89" vertex="1">
          <mxGeometry y="26" width="230" height="74" as="geometry" />
        </mxCell>
        <mxCell id="8I9pphBKhg92I5GMk5e_-91" value="" style="line;strokeWidth=1;fillColor=none;align=left;verticalAlign=middle;spacingTop=-1;spacingLeft=3;spacingRight=3;rotatable=0;labelPosition=right;points=[];portConstraint=eastwest;" parent="8I9pphBKhg92I5GMk5e_-89" vertex="1">
          <mxGeometry y="100" width="230" height="8" as="geometry" />
        </mxCell>
        <mxCell id="8I9pphBKhg92I5GMk5e_-92" value="+viewportToWorld(): Point                    &#xa;+worldToViewport(): Point &#xa;+shift()&#xa;+contains(): boolean&#xa;+getRow():&#xa;+getCol():  &#xa;+getNumRows():&#xa;+getNumCols():                                                      " style="text;strokeColor=none;fillColor=none;align=left;verticalAlign=top;spacingLeft=4;spacingRight=4;overflow=hidden;rotatable=0;points=[[0,0.5],[1,0.5]];portConstraint=eastwest;" parent="8I9pphBKhg92I5GMk5e_-89" vertex="1">
          <mxGeometry y="108" width="230" height="132" as="geometry" />
        </mxCell>
        <mxCell id="8I9pphBKhg92I5GMk5e_-96" value="Event" style="swimlane;fontStyle=1;align=center;verticalAlign=top;childLayout=stackLayout;horizontal=1;startSize=26;horizontalStack=0;resizeParent=1;resizeParentMax=0;resizeLast=0;collapsible=1;marginBottom=0;hachureGap=4;pointerEvents=0;sketch=0;fontColor=#5AA9E6;strokeColor=#FF6392;fillColor=#FFE45E;" parent="1" vertex="1">
          <mxGeometry x="1140" y="790" width="165" height="98" as="geometry" />
        </mxCell>
        <mxCell id="8I9pphBKhg92I5GMk5e_-97" value="-action: Action&#xa;-time: long&#xa;-entity: Entity" style="text;strokeColor=none;fillColor=none;align=left;verticalAlign=top;spacingLeft=4;spacingRight=4;overflow=hidden;rotatable=0;points=[[0,0.5],[1,0.5]];portConstraint=eastwest;" parent="8I9pphBKhg92I5GMk5e_-96" vertex="1">
          <mxGeometry y="26" width="165" height="64" as="geometry" />
        </mxCell>
        <mxCell id="8I9pphBKhg92I5GMk5e_-98" value="" style="line;strokeWidth=1;fillColor=none;align=left;verticalAlign=middle;spacingTop=-1;spacingLeft=3;spacingRight=3;rotatable=0;labelPosition=right;points=[];portConstraint=eastwest;" parent="8I9pphBKhg92I5GMk5e_-96" vertex="1">
          <mxGeometry y="90" width="165" height="8" as="geometry" />
        </mxCell>
        <mxCell id="8I9pphBKhg92I5GMk5e_-100" value="&lt;&lt;enumeration&gt;&gt;&#xa;EntityKind" style="swimlane;fontStyle=1;align=center;verticalAlign=top;childLayout=stackLayout;horizontal=1;startSize=40;horizontalStack=0;resizeParent=1;resizeParentMax=0;resizeLast=0;collapsible=1;marginBottom=0;hachureGap=4;pointerEvents=0;sketch=0;fontColor=#5AA9E6;strokeColor=#FF6392;fillColor=#FFE45E;" parent="1" vertex="1">
          <mxGeometry x="1470" y="30" width="160" height="172" as="geometry" />
        </mxCell>
        <mxCell id="8I9pphBKhg92I5GMk5e_-101" value="HOUSE&#xa;DUDE_FULL&#xa;DUDE_NOT_FULL&#xa;OBSTACLE&#xa;FAIRY&#xa;STUMP&#xa;SAPLING&#xa;TREE" style="text;strokeColor=none;fillColor=none;align=left;verticalAlign=top;spacingLeft=4;spacingRight=4;overflow=hidden;rotatable=0;points=[[0,0.5],[1,0.5]];portConstraint=eastwest;" parent="8I9pphBKhg92I5GMk5e_-100" vertex="1">
          <mxGeometry y="40" width="160" height="124" as="geometry" />
        </mxCell>
        <mxCell id="8I9pphBKhg92I5GMk5e_-102" value="" style="line;strokeWidth=1;fillColor=none;align=left;verticalAlign=middle;spacingTop=-1;spacingLeft=3;spacingRight=3;rotatable=0;labelPosition=right;points=[];portConstraint=eastwest;" parent="8I9pphBKhg92I5GMk5e_-100" vertex="1">
          <mxGeometry y="164" width="160" height="8" as="geometry" />
        </mxCell>
        <mxCell id="8I9pphBKhg92I5GMk5e_-104" value="Point" style="swimlane;fontStyle=1;align=center;verticalAlign=top;childLayout=stackLayout;horizontal=1;startSize=26;horizontalStack=0;resizeParent=1;resizeParentMax=0;resizeLast=0;collapsible=1;marginBottom=0;hachureGap=4;pointerEvents=0;sketch=0;fontColor=#5AA9E6;strokeColor=#FF6392;fillColor=#FFE45E;" parent="1" vertex="1">
          <mxGeometry x="1470" y="232.03" width="160" height="170" as="geometry" />
        </mxCell>
        <mxCell id="8I9pphBKhg92I5GMk5e_-105" value="-x: int&#xa;-y: int" style="text;strokeColor=none;fillColor=none;align=left;verticalAlign=top;spacingLeft=4;spacingRight=4;overflow=hidden;rotatable=0;points=[[0,0.5],[1,0.5]];portConstraint=eastwest;" parent="8I9pphBKhg92I5GMk5e_-104" vertex="1">
          <mxGeometry y="26" width="160" height="54" as="geometry" />
        </mxCell>
        <mxCell id="8I9pphBKhg92I5GMk5e_-106" value="" style="line;strokeWidth=1;fillColor=none;align=left;verticalAlign=middle;spacingTop=-1;spacingLeft=3;spacingRight=3;rotatable=0;labelPosition=right;points=[];portConstraint=eastwest;" parent="8I9pphBKhg92I5GMk5e_-104" vertex="1">
          <mxGeometry y="80" width="160" height="8" as="geometry" />
        </mxCell>
        <mxCell id="8I9pphBKhg92I5GMk5e_-107" value="+toString(): String&#xa;+equals(): boolean&#xa;+distanceSquared(): int &#xa;+getX():&#xa;+getY():                     " style="text;strokeColor=none;fillColor=none;align=left;verticalAlign=top;spacingLeft=4;spacingRight=4;overflow=hidden;rotatable=0;points=[[0,0.5],[1,0.5]];portConstraint=eastwest;" parent="8I9pphBKhg92I5GMk5e_-104" vertex="1">
          <mxGeometry y="88" width="160" height="82" as="geometry" />
        </mxCell>
        <mxCell id="8I9pphBKhg92I5GMk5e_-108" value="Action" style="swimlane;fontStyle=1;align=center;verticalAlign=top;childLayout=stackLayout;horizontal=1;startSize=26;horizontalStack=0;resizeParent=1;resizeParentMax=0;resizeLast=0;collapsible=1;marginBottom=0;hachureGap=4;pointerEvents=0;sketch=0;fontColor=#5AA9E6;strokeColor=#FF6392;fillColor=#FFE45E;" parent="1" vertex="1">
          <mxGeometry x="1390" y="679.54" width="160" height="370" as="geometry" />
        </mxCell>
        <mxCell id="8I9pphBKhg92I5GMk5e_-109" value="+kind: ActionKind&#xa;+entity: Entity&#xa;+world: WorldModel&#xa;+imageStore: ImageStore&#xa;+repeatCount: int" style="text;strokeColor=none;fillColor=none;align=left;verticalAlign=top;spacingLeft=4;spacingRight=4;overflow=hidden;rotatable=0;points=[[0,0.5],[1,0.5]];portConstraint=eastwest;" parent="8I9pphBKhg92I5GMk5e_-108" vertex="1">
          <mxGeometry y="26" width="160" height="124" as="geometry" />
        </mxCell>
        <mxCell id="8I9pphBKhg92I5GMk5e_-110" value="" style="line;strokeWidth=1;fillColor=none;align=left;verticalAlign=middle;spacingTop=-1;spacingLeft=3;spacingRight=3;rotatable=0;labelPosition=right;points=[];portConstraint=eastwest;" parent="8I9pphBKhg92I5GMk5e_-108" vertex="1">
          <mxGeometry y="150" width="160" height="8" as="geometry" />
        </mxCell>
        <mxCell id="8I9pphBKhg92I5GMk5e_-99" value="+getAction():&#xa;+getTime():&#xa;+getEntity():" style="text;strokeColor=none;fillColor=none;align=left;verticalAlign=top;spacingLeft=4;spacingRight=4;overflow=hidden;rotatable=0;points=[[0,0.5],[1,0.5]];portConstraint=eastwest;" parent="8I9pphBKhg92I5GMk5e_-108" vertex="1">
          <mxGeometry y="158" width="160" height="60" as="geometry" />
        </mxCell>
        <mxCell id="8I9pphBKhg92I5GMk5e_-111" value="+executeAction() &#xa;-executeAnimationAction()                   &#xa;-executeActivityAction()&#xa;&#xa;                                                           " style="text;strokeColor=none;fillColor=none;align=left;verticalAlign=top;spacingLeft=4;spacingRight=4;overflow=hidden;rotatable=0;points=[[0,0.5],[1,0.5]];portConstraint=eastwest;" parent="8I9pphBKhg92I5GMk5e_-108" vertex="1">
          <mxGeometry y="218" width="160" height="152" as="geometry" />
        </mxCell>
        <mxCell id="8I9pphBKhg92I5GMk5e_-112" value="ActionKind" style="swimlane;fontStyle=1;align=center;verticalAlign=top;childLayout=stackLayout;horizontal=1;startSize=26;horizontalStack=0;resizeParent=1;resizeParentMax=0;resizeLast=0;collapsible=1;marginBottom=0;hachureGap=4;pointerEvents=0;sketch=0;fontColor=#5AA9E6;strokeColor=#FF6392;fillColor=#FFE45E;" parent="1" vertex="1">
          <mxGeometry x="1610" y="645.54" width="160" height="60" as="geometry" />
        </mxCell>
        <mxCell id="8I9pphBKhg92I5GMk5e_-113" value="ACTIVITY&#xa;ANIMATION" style="text;strokeColor=none;fillColor=none;align=left;verticalAlign=top;spacingLeft=4;spacingRight=4;overflow=hidden;rotatable=0;points=[[0,0.5],[1,0.5]];portConstraint=eastwest;" parent="8I9pphBKhg92I5GMk5e_-112" vertex="1">
          <mxGeometry y="26" width="160" height="34" as="geometry" />
        </mxCell>
      </root>
    </mxGraphModel>
  </diagram>
</mxfile>
